<?xml version="1.0" encoding="utf-8"?>
<!-- Generator: Adobe Illustrator 21.0.2, SVG Export Plug-In . SVG Version: 6.00 Build 0)  -->
<svg version="1.0" id="Calque_1" xmlns="http://www.w3.org/2000/svg" xmlns:xlink="http://www.w3.org/1999/xlink" x="0px" y="0px"
	 viewBox="0 0 100 100" style="enable-background:new 0 0 100 100;" xml:space="preserve">
<style type="text/css">
	.st0{fill:#FFFFFF;}
</style>
<g>
	<path class="st0" d="M58.2,68.4c-4-5.8-25.5-38-26-38.6c-1.8-2.4-4.1-3.6-6.6-3.6H5v0.3c0,0,3.7,1,6,4.6
		c0.9,1.4,24.9,38.2,25.6,39.1c2.5,3.5,6.2,3.5,6.5,3.5h22.5v-0.3C65.6,73.5,60.9,72.4,58.2,68.4z"/>
	<path class="st0" d="M74.4,26.2c-2.5,0-4.6,0.7-6.6,3.6c-0.9,1.3-8,12-10.2,15.1c-2.2,3.1-6.3,4.9-6.3,4.9v0.3h20.7
		c2.4,0,4.6-1,6.7-4c2.5-3.8,9.5-13.7,10.4-15c2.7-3.8,6-4.6,6-4.6v-0.3H74.4z"/>
</g>
</svg>
