<?xml version="1.0" encoding="utf-8"?>
<!-- Generator: Adobe Illustrator 26.0.3, SVG Export Plug-In . SVG Version: 6.00 Build 0)  -->
<svg version="1.1" id="Calque_1" xmlns="http://www.w3.org/2000/svg" xmlns:xlink="http://www.w3.org/1999/xlink" x="0px" y="0px"
	 viewBox="0 0 300 38" style="enable-background:new 0 0 300 38;" xml:space="preserve">
<style type="text/css">
	.st0{fill:#1D1D1D;}
	.st1{opacity:0.5;}
</style>
<g id="Page-1_1_">
	<g id="Custom-Preset" transform="translate(-908.000000, -1348.000000)">
		<g id="Page-1" transform="translate(908.000000, 1348.000000)">
			<polygon id="Fill-8" class="st0" points="92.2,11.7 96.1,11.7 87.9,30 84.1,30 75.9,11.7 79.9,11.7 86.1,26.1 			"/>
			<g id="Group-31" transform="translate(96.675192, 4.322306)">
				<path id="Fill-9" class="st0" d="M11,9.6c-5,0-6.8,3.5-6.8,6.9c0,3.3,1.8,6.9,6.8,6.9s6.8-3.5,6.8-6.9
					C17.9,13.2,16.1,9.6,11,9.6z M11,6.7c7.1,0,10.5,4.5,10.5,9.8S18,26.3,11,26.3S0.5,21.8,0.5,16.5S4,6.7,11,6.7z"/>
				<g id="Group-13" transform="translate(22.250639, 6.979592)">
					<g id="Clip-12">
					</g>
					<path id="Fill-11" class="st0" d="M16.8,0.4h3.9l-9.5,21.5c-1.7,3.9-3.1,4.5-6.3,4.5c-0.9,0-1.7-0.1-2.6-0.1v-2.9
						c0.6,0,1.2,0.1,2,0.1c2.1,0,2.7-0.5,3.8-2.8L8.8,19L0.4,0.4h4l6.2,14.5L16.8,0.4z"/>
				</g>
				<path id="Fill-14" class="st0" d="M58.9,16.1c-0.5,0.6-1.5,0.8-3.4,1.1l-3.9,0.5c-2.7,0.3-4.1,1.1-4.1,3c0,1.7,1.7,2.9,4.2,2.9
					c3.9,0,7.2-2.1,7.2-5.1V16.1z M44.8,13.1c0.5-4.6,3.6-6.4,9-6.4c3.7,0,8.3,0.9,8.3,5.2v9.9c0,1.1,0.5,1.6,1.6,1.6
					c0.4,0,0.9-0.1,1.2-0.1v2.4c-0.8,0.1-1.9,0.2-2.7,0.2c-1.7,0-2.9-0.5-3.1-2.6c-1.4,1.9-4.8,3-7.7,3c-6,0-7.4-3.1-7.4-5.5
					c0-3.4,2-5.1,7.8-5.7l3.9-0.4c1.9-0.2,3.1-0.6,3.1-2.2c0-2.5-2.4-3-5.2-3c-3,0-5.5,0.8-5.6,3.6H44.8z"/>
				<g id="Group-18" transform="translate(65.984655, 6.204082)">
					<g id="Clip-17">
					</g>
					<path id="Fill-16" class="st0" d="M10.8,3.6c-4.2,0-6.7,2.8-6.7,6.6s2.5,6.5,6.7,6.5s6.7-2.7,6.7-6.5S15,3.6,10.8,3.6L10.8,3.6
						z M17.5,1.1H21v16.8c0,6.6-3.1,9.2-10.6,9.2c-3.9,0-8.4-0.6-9.1-5.7h3.5c0.6,2.4,2.7,3,6,3c4.9,0,6.7-2.5,6.7-5.5v-2.7h-0.1
						c-1.9,2.8-4.7,3.4-7,3.4c-4.8,0-9.9-2.7-9.9-9.4c0-6.8,5.1-9.5,9.9-9.5c3,0,5.7,1,7.1,3.1h0.1V1.1H17.5z"/>
				</g>
				<path id="Fill-19" class="st0" d="M106.8,14.8c-0.5-3.3-3.1-5.2-6.3-5.2c-3.2,0-6.1,1.9-6.6,5.2H106.8z M93.8,17.5
					c0.3,3.8,3.6,5.8,6.7,5.8c2,0,4.7-0.7,5.8-3.3h3.7c-1.7,4.4-5.8,6.2-9.3,6.2c-7.1,0-10.5-4.5-10.5-9.8s3.5-9.8,10.5-9.8
					c4.8,0,9.8,2.8,9.8,10.4v0.5H93.8z"/>
				<path id="Fill-21" class="st0" d="M138,16.5c0,5.3-3.8,7.7-7.6,7.7s-7.8-2.1-7.8-8c0-1.3,0.4-7.6,8-7.6
					C135.1,8.7,138,11.8,138,16.5 M130.5,6.6c-3.9,0-6.4,1.7-7.6,3.6v-3h-2.2v25.6h2.2V22.6c1,1.4,3.3,3.7,7.6,3.7
					c5.7,0,9.8-4,9.8-9.8C140.2,11.6,137.2,6.6,130.5,6.6"/>
				<path id="Fill-23" class="st0" d="M152.8,6.6c-3.2,0-5.7,1.4-7.1,3.8V7.2h-2.2v18.5h2.2v-10c0-3.3,2.1-6.9,6.6-6.9
					c1,0,1.4,0.1,1.7,0.2l0.4,0.2V6.9l-0.2-0.1C153.7,6.7,153.3,6.6,152.8,6.6"/>
				<polygon id="Fill-25" class="st0" points="157.6,4.5 159.8,4.5 159.8,0.1 157.6,0.1 				"/>
				<polygon id="Fill-27" class="st0" points="157.6,25.7 159.8,25.7 159.8,7.2 157.6,7.2 				"/>
				<polygon id="Fill-28" class="st0" points="173,23.1 165.4,7.2 162.9,7.2 172,25.7 174,25.7 183,7.2 180.5,7.2 				"/>
				<path id="Fill-29" class="st0" d="M200.8,15.1h-15.5c0.8-4.1,3.6-6.4,7.8-6.4C197.3,8.7,200.1,11,200.8,15.1L200.8,15.1z
					 M200.6,19.4c-0.6,1.5-1.9,4.9-7.3,4.9c-4.8,0-7.9-2.7-8.1-7.1h18v-0.3c-0.1-6.2-4-10.2-10.1-10.2c-8.1,0-10.2,6.3-10.2,9.7
					c0,6.1,3.9,10,10.2,10c5,0,8.1-2.2,9.6-6.7l0.1-0.4L200.6,19.4L200.6,19.4z"/>
				<polygon id="Fill-30" class="st0" points="194.8,0.3 198,0.3 192.9,5.3 190.8,5.3 				"/>
			</g>
		</g>
	</g>
</g>
<g class="st1">
	<g id="Group-7" transform="translate(0.000000, 0.444755)">
		<g id="Group-3">
			<g id="Clip-2">
			</g>
		</g>
		<path id="Fill-1" d="M40.8,33.1c-3-4.5-19.5-29.4-19.9-30c-1.4-1.8-3.1-2.8-5.1-2.8H0v0.3c0,0,2.8,0.8,4.6,3.5
			c0.7,1.1,19.1,29.6,19.7,30.3c2,2.7,4.7,2.7,5,2.7h17.3V37C46.5,37,42.9,36.1,40.8,33.1"/>
	</g>
	<path id="Fill-4" d="M53.3,0.8c-1.9,0-3.6,0.6-5.1,2.8c-0.7,1-6.2,9.3-7.9,11.7s-4.8,3.8-4.8,3.8v0.2h15.8c1.8,0,3.6-0.7,5.1-3.1
		c2-2.9,7.3-10.6,8-11.6C66.5,1.6,69,1,69,1V0.8H53.3z"/>
</g>
</svg>
